#!OML:ASF X:\für Bonn\!DataBase\2005_08_12_Daniel\c3d\Daniel.ASF
:FULLY-SPECIFIED
:DEGREES
193
root 2.74742 17.6086 17.1018 -5.70751 11.2518 -1.4893
lowerback 7.7121 0.67825 2.77119
upperback 1.23972 1.01255 -3.89423
thorax -2.92153 0.466944 -5.72618
lowerneck 3.95558 -4.3673 -3.03098
upperneck 19.3539 -6.27863 2.88359
head 5.3775 -3.08796 1.19049
rclavicle -4.72114e-016 2.22639e-014
rhumerus 17.3129 3.96894 -54.4727
rradius 83.6477
rwrist -9.80518
rhand -19.425 15.7964
rfingers 7.12502
rthumb 6.89489 -14.0713
lclavicle -4.72114e-016 2.22639e-014
lhumerus -36.2186 39.046 62.2124
lradius 18.1441
lwrist -38.401
lhand -11.2971 -6.47512
lfingers 7.12502
lthumb 14.7343 22.9812
rfemur 10.0285 18.1576 22.918
rtibia 12.8867
rfoot -23.489 -24.7026
rtoes -12.3366
lfemur -1.19476 -17.0492 -17.3732
ltibia 29.5988
lfoot -22.6765 4.79371
ltoes -13.2763
194
root 2.74676 17.6076 17.1016 -5.70443 11.2522 -1.47566
lowerback 7.73011 0.57128 2.642
upperback 1.29248 0.862247 -3.82566
thorax -2.89774 0.394866 -5.56416
lowerneck 3.93768 -4.2531 -3.04935
upperneck 19.4708 -6.1114 2.79057
head 5.40943 -3.01225 1.1697
rclavicle 8.05078e-015 1.59028e-014
rhumerus 15.6586 4.3694 -54.8069
rradius 85.7786
rwrist -10.4331
rhand -19.1686 15.9365
rfingers 7.12502
rthumb 7.14243 -13.923
lclavicle 8.05078e-015 1.59028e-014
lhumerus -36.0488 38.7117 62.6478
lradius 18.306
lwrist -37.9855
lhand -11.3024 -6.42739
lfingers 7.12502
lthumb 14.7291 23.0293
rfemur 10.0411 18.2608 22.9373
rtibia 12.8871
rfoot -23.5623 -24.7896
rtoes -12.3726
lfemur -1.19505 -17.0479 -17.3774
ltibia 29.5914
lfoot -22.6748 4.76216
ltoes -13.2206
195
root 2.74546 17.6077 17.1007 -5.69492 11.2627 -1.46434
lowerback 7.73504 0.465728 2.5055
upperback 1.3677 0.713765 -3.75305
thorax -2.84224 0.324864 -5.39332
lowerneck 3.88205 -4.14199 -3.0382
upperneck 19.5717 -5.94399 2.67602
head 5.44122 -2.9355 1.13656
rclavicle -4.60683e-014 1.43125e-014
rhumerus 13.983 4.73793 -55.1852
rradius 87.9149
rwrist -11.0616
rhand -18.8928 16.0079
rfingers 7.12502
rthumb 7.40865 -13.8424
lclavicle -4.60683e-014 1.43125e-014
lhumerus -35.7729 38.2727 63.2036
lradius 18.4575
lwrist -37.4879
lhand -11.3606 -6.35519
lfingers 7.12502
lthumb 14.6731 23.1056
rfemur 10.0573 18.3929 22.9728
rtibia 12.8804
rfoot -23.6314 -24.9174
rtoes -12.2802
lfemur -1.21582 -17.0179 -17.3665
ltibia 29.59
lfoot -22.655 4.70495
ltoes -13.1767
196
root 2.74331 17.6066 17.0996 -5.70246 11.2708 -1.4637
lowerback 7.77846 0.356825 2.36339
upperback 1.4276 0.560598 -3.67282
thorax -2.82367 0.251304 -5.21198
lowerneck 3.82506 -4.02532 -3.0321
upperneck 19.7265 -5.76911 2.55715
head 5.49027 -2.85556 1.10283
rclavicle 3.84648e-014 1.59028e-015
rhumerus 12.2582 5.16807 -55.6014
rradius 90.016
rwrist -11.6701
rhand -18.6723 15.9949
rfingers 7.12502
rthumb 7.62142 -13.8478
lclavicle 3.84648e-014 1.59028e-015
lhumerus -35.5538 37.8371 63.7133
lradius 18.6021
lwrist -36.9668
lhand -11.4237 -6.23054
lfingers 7.12502
lthumb 14.6123 23.2347
rfemur 10.0888 18.5575 23.0339
rtibia 12.8858
rfoot -23.7551 -25.0506
rtoes -12.2352
lfemur -1.22154 -16.9898 -17.3471
ltibia 29.5838
lfoot -22.6417 4.64956
ltoes -13.1311
197
root 2.74096 17.6069 17.0978 -5.68134 11.284 -1.46216
lowerback 7.79961 0.252132 2.22946
upperback 1.49185 0.413583 -3.59589
thorax -2.78625 0.181122 -5.03906
lowerneck 3.75623 -3.91267 -3.03346
upperneck 19.8702 -5.60051 2.44975
head 5.53879 -2.77867 1.07356
rclavicle -8.4732e-015 1.74931e-014
rhumerus 10.4762 5.60348 -56.0537
rradius 92.1115
rwrist -12.3094
rhand -18.507 16.0021
rfingers 7.12502
rthumb 7.78102 -13.8347
lclavicle -8.4732e-015 1.74931e-014
lhumerus -35.2645 37.4112 64.2413
lradius 18.6843
lwrist -36.5276
lhand -11.5101 -6.14348
lfingers 7.12502
lthumb 14.5291 23.3278
rfemur 10.075 18.6727 23.0685
rtibia 12.8838
rfoot -23.831 -25.164
rtoes -12.2067
lfemur -1.26123 -16.9815 -17.3224
ltibia 29.5814
lfoot -22.6288 4.6088
ltoes -13.0836
198
root 2.73843 17.6067 17.0957 -5.67054 11.3049 -1.44927
lowerback 7.84709 0.146384 2.09121
upperback 1.55543 0.264665 -3.52928
thorax -2.76327 0.109587 -4.87491
lowerneck 3.69536 -3.7987 -3.0273
upperneck 20.0178 -5.42906 2.33635
head 5.58704 -2.70047 1.04154
rclavicle -2.3556e-014 -6.36111e-015
rhumerus 8.66566 6.06827 -56.5517
rradius 94.1187
rwrist -12.9491
rhand -18.3927 16.0346
rfingers 7.12502
rthumb 7.8913 -13.7981
lclavicle -2.3556e-014 -6.36111e-015
lhumerus -35.013 37.0809 64.688
lradius 18.7365
lwrist -36.243
lhand -11.6077 -6.09142
lfingers 7.12502
lthumb 14.4351 23.3866
rfemur 10.0825 18.7937 23.0985
rtibia 12.8859
rfoot -23.9191 -25.2735
rtoes -12.0664
lfemur -1.28972 -16.9401 -17.3035
ltibia 29.5744
lfoot -22.6092 4.5422
ltoes -13.0992
199
root 2.73543 17.6066 17.0921 -5.66806 11.3261 -1.438
lowerback 7.92045 0.055426 1.96412
upperback 1.62725 0.136512 -3.46725
thorax -2.74304 0.0483278 -4.72432
lowerneck 3.61918 -3.69598 -3.01287
upperneck 20.1741 -5.27637 2.24728
head 5.64175 -2.62929 1.01474
rclavicle 1.57785e-014 -1.90833e-014
rhumerus 6.73701 6.47761 -57.1359
rradius 96.1306
rwrist -13.5815
rhand -18.2477 16.0954
rfingers 7.12502
rthumb 8.03129 -13.732
lclavicle 1.57785e-014 -1.90833e-014
lhumerus -34.6712 36.5945 65.2444
lradius 18.7826
lwrist -35.8287
lhand -11.7094 -6.0016
lfingers 7.12502
lthumb 14.3371 23.4834
rfemur 10.0912 18.9138 23.1346
rtibia 12.8847
rfoot -23.9857 -25.4004
rtoes -12.1195
lfemur -1.32011 -16.8978 -17.2818
ltibia 29.5709
lfoot -22.5726 4.45949
ltoes -13.0024
200
root 2.73173 17.607 17.0888 -5.65333 11.3554 -1.43575
lowerback 7.98191 -0.039724 1.82821
upperback 1.69995 0.00253517 -3.38522
thorax -2.71495 -0.015694 -4.54691
lowerneck 3.51483 -3.58356 -3.04039
upperneck 20.358 -5.10909 2.15812
head 5.71089 -2.55385 0.994836
rclavicle -2.5345e-015 -3.18055e-015
rhumerus 4.81029 6.95852 -57.6984
rradius 98.0195
rwrist -14.2602
rhand -18.1272 16.1471
rfingers 7.12502
rthumb 8.14759 -13.6758
lclavicle -2.5345e-015 -3.18055e-015
lhumerus -34.3849 36.2034 65.7655
lradius 18.8442
lwrist -35.537
lhand -11.8066 -5.98542
lfingers 7.12502
lthumb 14.2434 23.5062
rfemur 10.083 19.0521 23.1799
rtibia 12.8924
rfoot -24.0813 -25.5346
rtoes -11.9808
lfemur -1.36452 -16.8808 -17.2495
ltibia 29.5619
lfoot -22.5434 4.39327
ltoes -12.9576
201
root 2.72893 17.6075 17.0841 -5.63808 11.3807 -1.43512
lowerback 8.07433 -0.12271 1.72318
upperback 1.76141 -0.113508 -3.32388
thorax -2.71319 -0.071741 -4.41105
lowerneck 3.44144 -3.48311 -3.00174
upperneck 20.533 -4.95525 2.04493
head 5.77039 -2.48213 0.956672
rclavicle -9.64106e-015 1.11319e-014
rhumerus 2.72209 7.42796 -58.3723
rradius 99.8772
rwrist -14.8629
rhand -18.0303 16.2502
rfingers 7.12502
rthumb 8.24112 -13.5691
lclavicle -9.64106e-015 1.11319e-014
lhumerus -34.0818 35.5992 66.3586
lradius 18.9789
lwrist -35.0346
lhand -11.8639 -5.97521
lfingers 7.12502
lthumb 14.1882 23.5203
rfemur 10.0639 19.1215 23.2023
rtibia 12.8896
rfoot -24.1342 -25.6192
rtoes -12.0077
lfemur -1.4132 -16.8742 -17.2214
ltibia 29.5585
lfoot -22.5155 4.34202
ltoes -12.9103
202
root 2.72547 17.6073 17.0787 -5.63578 11.4202 -1.42353
lowerback 8.18521 -0.220393 1.5859
upperback 1.8419 -0.251188 -3.25189
thorax -2.70297 -0.137965 -4.24327
lowerneck 3.37367 -3.36818 -2.94951
upperneck 20.6594 -4.77623 1.90279
head 5.81217 -2.39941 0.908661
rclavicle -3.58309e-014 2.54444e-014
rhumerus 0.572955 7.90107 -59.1205
rradius 101.69
rwrist -15.4955
rhand -17.8041 16.4114
rfingers 7.12502
rthumb 8.45943 -13.3992
lclavicle -3.58309e-014 2.54444e-014
lhumerus -33.7786 34.9825 66.9817
lradius 19.1456
lwrist -34.5006
lhand -11.9401 -5.97453
lfingers 7.12502
lthumb 14.1147 23.5261
rfemur 10.0638 19.2104 23.225
rtibia 12.8916
rfoot -24.2072 -25.716
rtoes -11.8711
lfemur -1.44695 -16.8931 -17.2119
ltibia 29.5517
lfoot -22.4707 4.30402
ltoes -12.9053
